<svg xmlns="http://www.w3.org/2000/svg" width="1400" height="850" viewBox="0 0 1400 850">
  <defs>
    <linearGradient id="bg" x1="0" y1="0" x2="1" y2="1">
      <stop offset="0%" stop-color="#020617"/>
      <stop offset="50%" stop-color="#07111f"/>
      <stop offset="100%" stop-color="#020617"/>
    </linearGradient>
    <linearGradient id="accent" x1="0" y1="0" x2="1" y2="1">
      <stop offset="0%" stop-color="#38bdf8"/>
      <stop offset="100%" stop-color="#22c55e"/>
    </linearGradient>
    <filter id="shadow">
      <feDropShadow dx="0" dy="16" stdDeviation="16" flood-color="#000000" flood-opacity="0.45"/>
    </filter>
  </defs>

  <rect width="1400" height="850" fill="url(#bg)"/>
  <circle cx="180" cy="120" r="180" fill="#38bdf8" opacity="0.10"/>
  <circle cx="1180" cy="150" r="220" fill="#22c55e" opacity="0.08"/>

  <rect x="42" y="38" width="1316" height="774" rx="34" fill="rgba(15,23,42,0.70)" stroke="rgba(148,163,184,0.20)"/>

  <text x="84" y="100" fill="#e5e7eb" font-size="42" font-family="Arial, sans-serif" font-weight="800">Grafana Observability Dashboard</text>
  <text x="84" y="140" fill="#94a3b8" font-size="21" font-family="Arial, sans-serif">Premium production monitoring visual for Cloud Run, APIs, databases and latency</text>

  <g filter="url(#shadow)">
    <rect x="84" y="190" width="380" height="220" rx="22" fill="#0f172a" stroke="rgba(148,163,184,0.18)"/>
    <rect x="508" y="190" width="380" height="220" rx="22" fill="#0f172a" stroke="rgba(148,163,184,0.18)"/>
    <rect x="932" y="190" width="380" height="220" rx="22" fill="#0f172a" stroke="rgba(148,163,184,0.18)"/>

    <rect x="84" y="455" width="590" height="250" rx="22" fill="#0f172a" stroke="rgba(148,163,184,0.18)"/>
    <rect x="722" y="455" width="590" height="250" rx="22" fill="#0f172a" stroke="rgba(148,163,184,0.18)"/>
  </g>

  <g font-family="Arial, sans-serif">
    <text x="114" y="230" fill="#cbd5e1" font-size="20" font-weight="700">CPU Utilization</text>
    <text x="538" y="230" fill="#cbd5e1" font-size="20" font-weight="700">API Latency</text>
    <text x="962" y="230" fill="#cbd5e1" font-size="20" font-weight="700">Request Rate</text>
    <text x="114" y="495" fill="#cbd5e1" font-size="20" font-weight="700">Requests Over Time</text>
    <text x="752" y="495" fill="#cbd5e1" font-size="20" font-weight="700">Errors / Alerts</text>
  </g>

  <g stroke="rgba(148,163,184,0.14)" stroke-width="1">
    <path d="M114 270 H434 M114 315 H434 M114 360 H434"/>
    <path d="M538 270 H858 M538 315 H858 M538 360 H858"/>
    <path d="M962 270 H1282 M962 315 H1282 M962 360 H1282"/>
    <path d="M114 540 H644 M114 590 H644 M114 640 H644"/>
    <path d="M752 540 H1282 M752 590 H1282 M752 640 H1282"/>
  </g>

  <polyline points="120,370 170,355 220,365 270,340 320,350 370,320 430,330" fill="none" stroke="#38bdf8" stroke-width="5"/>
  <polyline points="545,360 600,330 650,345 700,300 760,315 810,280 855,295" fill="none" stroke="#22c55e" stroke-width="5"/>
  <polyline points="968,365 1020,350 1070,330 1120,300 1175,285 1230,255 1280,245" fill="none" stroke="#f97316" stroke-width="5"/>

  <polyline points="118,660 170,630 230,650 280,610 340,625 400,575 470,590 540,545 640,560" fill="none" stroke="#22c55e" stroke-width="6"/>
  <polyline points="760,660 815,615 865,645 920,590 970,620 1030,560 1090,600 1160,525 1265,555" fill="none" stroke="#ef4444" stroke-width="6"/>

  <g font-family="Arial, sans-serif" font-weight="700">
    <rect x="92" y="735" width="185" height="40" rx="20" fill="rgba(34,197,94,0.12)" stroke="rgba(34,197,94,0.28)"/>
    <text x="184" y="762" fill="#bbf7d0" font-size="16" text-anchor="middle">Healthy</text>

    <rect x="300" y="735" width="210" height="40" rx="20" fill="rgba(56,189,248,0.12)" stroke="rgba(56,189,248,0.28)"/>
    <text x="405" y="762" fill="#bae6fd" font-size="16" text-anchor="middle">Cloud Monitoring</text>

    <rect x="535" y="735" width="180" height="40" rx="20" fill="rgba(245,158,11,0.12)" stroke="rgba(245,158,11,0.28)"/>
    <text x="625" y="762" fill="#fde68a" font-size="16" text-anchor="middle">Alerting</text>

    <rect x="740" y="735" width="220" height="40" rx="20" fill="rgba(168,85,247,0.12)" stroke="rgba(168,85,247,0.28)"/>
    <text x="850" y="762" fill="#e9d5ff" font-size="16" text-anchor="middle">Production Ops</text>
  </g>
</svg>
